<mxfile host="app.diagrams.net" modified="2021-11-19T13:22:50.207Z" agent="5.0 (Windows NT 6.3; WOW64) AppleWebKit/537.36 (KHTML, like Gecko) Chrome/96.0.4664.45 Safari/537.36" etag="rziAQMFaa612ZtFV6rIj" version="15.8.2" type="github">
  <diagram name="Page-1" id="2a216829-ef6e-dabb-86c1-c78162f3ba2b">
    <mxGraphModel dx="924" dy="839" grid="1" gridSize="10" guides="1" tooltips="1" connect="1" arrows="1" fold="1" page="1" pageScale="1" pageWidth="850" pageHeight="1100" background="none" math="0" shadow="0">
      <root>
        <mxCell id="0" />
        <mxCell id="1" parent="0" />
        <mxCell id="7a84cebc1def654-2" value="ОФИЦИАНТ" style="shape=ext;rounded=1;html=1;whiteSpace=wrap;" parent="1" vertex="1">
          <mxGeometry x="360" y="200" width="120" height="120" as="geometry" />
        </mxCell>
        <mxCell id="7a84cebc1def654-3" value="ПОВАР" style="shape=ext;rounded=1;html=1;whiteSpace=wrap;" parent="1" vertex="1">
          <mxGeometry x="600" y="200" width="120" height="120" as="geometry" />
        </mxCell>
        <mxCell id="7a84cebc1def654-14" value="АДМИНИСТРАТОР" style="html=1;whiteSpace=wrap;rounded=1;" parent="1" vertex="1">
          <mxGeometry x="240" y="400" width="120" height="120" as="geometry" />
        </mxCell>
        <mxCell id="7a84cebc1def654-47" style="edgeStyle=orthogonalEdgeStyle;rounded=0;html=1;jettySize=auto;orthogonalLoop=1;entryX=1.017;entryY=0.335;entryDx=0;entryDy=0;entryPerimeter=0;" parent="1" source="7a84cebc1def654-3" target="7a84cebc1def654-2" edge="1">
          <mxGeometry relative="1" as="geometry">
            <mxPoint x="520" y="240" as="targetPoint" />
            <Array as="points">
              <mxPoint x="580" y="240" />
              <mxPoint x="580" y="240" />
            </Array>
          </mxGeometry>
        </mxCell>
        <mxCell id="T0hSLwV-LwBbvCwxyW3Y-1" style="edgeStyle=orthogonalEdgeStyle;rounded=0;html=1;jettySize=auto;orthogonalLoop=1;exitX=1.017;exitY=0.669;exitDx=0;exitDy=0;exitPerimeter=0;" edge="1" parent="1" source="7a84cebc1def654-2">
          <mxGeometry relative="1" as="geometry">
            <mxPoint x="540" y="280" as="sourcePoint" />
            <mxPoint x="600" y="280" as="targetPoint" />
            <Array as="points">
              <mxPoint x="560" y="280" />
              <mxPoint x="560" y="280" />
            </Array>
          </mxGeometry>
        </mxCell>
        <mxCell id="T0hSLwV-LwBbvCwxyW3Y-2" value="КАССИР" style="html=1;whiteSpace=wrap;rounded=1;" vertex="1" parent="1">
          <mxGeometry x="480" y="400" width="120" height="120" as="geometry" />
        </mxCell>
        <mxCell id="T0hSLwV-LwBbvCwxyW3Y-3" value="ЗАКУСОЧНАЯ" style="text;html=1;align=center;verticalAlign=middle;resizable=0;points=[];autosize=1;strokeColor=none;fillColor=none;strokeWidth=2;perimeterSpacing=1;fontStyle=1;fontSize=18;" vertex="1" parent="1">
          <mxGeometry x="350" y="90" width="140" height="30" as="geometry" />
        </mxCell>
        <mxCell id="T0hSLwV-LwBbvCwxyW3Y-5" value="ПОСЕТИТЕЛЬ" style="shape=ext;rounded=1;html=1;whiteSpace=wrap;" vertex="1" parent="1">
          <mxGeometry x="120" y="200" width="120" height="120" as="geometry" />
        </mxCell>
        <mxCell id="T0hSLwV-LwBbvCwxyW3Y-8" style="edgeStyle=orthogonalEdgeStyle;rounded=0;html=1;jettySize=auto;orthogonalLoop=1;entryX=0.998;entryY=0.345;entryDx=0;entryDy=0;entryPerimeter=0;" edge="1" parent="1" target="T0hSLwV-LwBbvCwxyW3Y-5">
          <mxGeometry relative="1" as="geometry">
            <mxPoint x="360" y="241" as="sourcePoint" />
            <mxPoint x="320" y="240" as="targetPoint" />
            <Array as="points">
              <mxPoint x="340" y="241" />
              <mxPoint x="340" y="241" />
            </Array>
          </mxGeometry>
        </mxCell>
        <mxCell id="T0hSLwV-LwBbvCwxyW3Y-9" style="edgeStyle=orthogonalEdgeStyle;rounded=0;html=1;jettySize=auto;orthogonalLoop=1;exitX=1.017;exitY=0.678;exitDx=0;exitDy=0;exitPerimeter=0;" edge="1" parent="1" source="T0hSLwV-LwBbvCwxyW3Y-5">
          <mxGeometry relative="1" as="geometry">
            <mxPoint x="280" y="280" as="sourcePoint" />
            <mxPoint x="360" y="280" as="targetPoint" />
            <Array as="points">
              <mxPoint x="242" y="280" />
            </Array>
          </mxGeometry>
        </mxCell>
        <mxCell id="T0hSLwV-LwBbvCwxyW3Y-10" value="" style="endArrow=classic;html=1;rounded=0;fontSize=18;entryX=0.5;entryY=1;entryDx=0;entryDy=0;" edge="1" parent="1" target="7a84cebc1def654-2">
          <mxGeometry width="50" height="50" relative="1" as="geometry">
            <mxPoint x="320" y="400" as="sourcePoint" />
            <mxPoint x="490" y="320" as="targetPoint" />
          </mxGeometry>
        </mxCell>
        <mxCell id="T0hSLwV-LwBbvCwxyW3Y-12" value="" style="endArrow=classic;html=1;rounded=0;fontSize=18;entryX=0.5;entryY=1;entryDx=0;entryDy=0;" edge="1" parent="1" target="7a84cebc1def654-2">
          <mxGeometry width="50" height="50" relative="1" as="geometry">
            <mxPoint x="520" y="400" as="sourcePoint" />
            <mxPoint x="490" y="320" as="targetPoint" />
          </mxGeometry>
        </mxCell>
        <mxCell id="T0hSLwV-LwBbvCwxyW3Y-14" value="" style="endArrow=classic;html=1;rounded=0;fontSize=18;exitX=0.332;exitY=1.002;exitDx=0;exitDy=0;exitPerimeter=0;entryX=0.656;entryY=0.011;entryDx=0;entryDy=0;entryPerimeter=0;" edge="1" parent="1" source="7a84cebc1def654-3" target="T0hSLwV-LwBbvCwxyW3Y-2">
          <mxGeometry width="50" height="50" relative="1" as="geometry">
            <mxPoint x="440" y="370" as="sourcePoint" />
            <mxPoint x="680" y="399" as="targetPoint" />
            <Array as="points" />
          </mxGeometry>
        </mxCell>
        <mxCell id="T0hSLwV-LwBbvCwxyW3Y-15" value="" style="endArrow=classic;html=1;rounded=0;fontSize=18;entryX=0.359;entryY=0.011;entryDx=0;entryDy=0;exitX=0.665;exitY=1.011;exitDx=0;exitDy=0;exitPerimeter=0;entryPerimeter=0;" edge="1" parent="1" source="T0hSLwV-LwBbvCwxyW3Y-5" target="7a84cebc1def654-14">
          <mxGeometry width="50" height="50" relative="1" as="geometry">
            <mxPoint x="220" y="130" as="sourcePoint" />
            <mxPoint x="160.96000000000004" y="281.31999999999994" as="targetPoint" />
          </mxGeometry>
        </mxCell>
        <mxCell id="T0hSLwV-LwBbvCwxyW3Y-16" value="" style="endArrow=classic;html=1;rounded=0;fontSize=18;entryX=0.5;entryY=0;entryDx=0;entryDy=0;exitX=0.313;exitY=1.011;exitDx=0;exitDy=0;exitPerimeter=0;" edge="1" parent="1" source="7a84cebc1def654-2" target="7a84cebc1def654-14">
          <mxGeometry width="50" height="50" relative="1" as="geometry">
            <mxPoint x="350" y="340" as="sourcePoint" />
            <mxPoint x="450.20000000000005" y="418.68000000000006" as="targetPoint" />
          </mxGeometry>
        </mxCell>
      </root>
    </mxGraphModel>
  </diagram>
</mxfile>
